<svg width="40" height="40" viewBox="0 0 40 40" fill="none" xmlns="http://www.w3.org/2000/svg">
<path d="M13.3333 3.33337V8.33337M26.6667 3.33337V8.33337M36.6667 36.6667L35 35M5.83333 15.15H34.1667M22.2833 36.6667H13.3333C7.5 36.6667 5 33.3334 5 28.3334V14.1667C5 9.16671 7.5 5.83337 13.3333 5.83337H26.6667C32.5 5.83337 35 9.16671 35 14.1667V21.6667M19.9925 22.8334H20.0074M13.8239 22.8334H13.8388M13.8239 27.8334H13.8388M35.6667 30.3334C35.6667 33.2789 33.2788 35.6667 30.3333 35.6667C27.3878 35.6667 25 33.2789 25 30.3334C25 27.3879 27.3878 25 30.3333 25C33.2788 25 35.6667 27.3879 35.6667 30.3334Z" stroke="#E4D478" stroke-width="1.5" stroke-linecap="round" stroke-linejoin="round"/>
</svg>
